<svg width="311" height="50" viewBox="0 0 311 50" fill="none" xmlns="http://www.w3.org/2000/svg">
<path d="M65.3098 11.7046H72.6986C82.6242 11.7046 83.1933 18.2138 83.1933 20.3998C83.1933 24.7134 80.1259 28.0555 75.4091 28.3761L82.8364 38.2954H79.5568L70.5958 26.2484H72.6986C74.1937 26.2484 80.5503 26.1804 80.5503 20.1375C80.5503 17.3006 78.9395 14.0945 72.6986 14.0945H67.9528V38.2857H65.3098V11.7046ZM100.575 38.3052V35.4683H100.508C99.0125 37.6931 96.7265 38.7715 94.1221 38.7715C89.5885 38.7715 85.5951 36.0026 85.5951 28.9979V18.6413H88.2381V28.9979C88.2381 34.4967 91.4116 36.3718 94.45 36.3718C97.1605 36.3718 100.45 34.9728 100.45 29.4351V18.651H103.093V38.3052H100.575ZM109.498 11.7046V22.0223H109.565C111.311 19.3311 114.137 18.175 117.06 18.175C124.237 18.175 127.449 23.7516 127.449 28.5607C127.449 34.3802 122.954 38.7715 116.992 38.7715C113.78 38.7715 111.176 37.5182 109.43 34.9242H109.363V38.3052H106.864V11.7046H109.498ZM109.353 28.5995C109.353 32.9131 112.748 36.3621 116.992 36.3621C121.237 36.3621 124.806 33.0589 124.806 28.5607C124.806 23.9945 121.449 20.5844 117.06 20.5844C112.671 20.5844 109.353 24.1013 109.353 28.5995ZM133.12 11.7046V22.0223H133.188C134.934 19.3311 137.76 18.175 140.683 18.175C147.859 18.175 151.071 23.7516 151.071 28.5607C151.071 34.3802 146.576 38.7715 140.615 38.7715C137.403 38.7715 134.799 37.5182 133.053 34.9242H132.985V38.3052H130.487V11.7046H133.12ZM132.976 28.5995C132.976 32.9131 136.371 36.3621 140.615 36.3621C144.859 36.3621 148.428 33.0589 148.428 28.5607C148.428 23.9945 145.072 20.5844 140.683 20.5844C136.294 20.5844 132.976 24.1013 132.976 28.5995ZM156.107 29.4253C156.425 33.3406 159.425 36.3621 163.534 36.3621C166.601 36.3621 169.138 34.6036 170.353 31.9028H173.103C171.53 36.1484 167.961 38.7715 163.534 38.7715C157.785 38.7715 153.367 34.3899 153.367 28.4927C153.367 23.635 156.897 18.175 163.534 18.175C170.923 18.175 173.604 24.3539 173.566 29.4253H156.107ZM170.701 27.0159C169.948 23.0229 166.92 20.5844 163.524 20.5844C159.782 20.5844 156.743 23.2755 156.097 27.0159H170.701ZM179.093 18.6413V21.4782H179.16C180.231 19.3602 182.372 18.1361 184.764 18.2041V20.8661C182.266 21.0119 179.228 22.6635 179.228 26.6565V38.3052H176.585V18.6413H179.093ZM192.327 11.7046H195.076L201.539 34.8951L207.857 11.7046H210.355L216.673 34.8951L223.136 11.7046H225.885L218.39 38.3052H214.927L209.111 16.5234L203.294 38.3052H199.831L192.327 11.7046ZM230.409 11.7046V21.4782C231.653 19.642 233.688 18.175 236.727 18.175C241.154 18.175 245.254 20.9438 245.254 27.9486V38.3052H242.611V27.9486C242.611 26.5107 242.505 20.5747 236.399 20.5747C233.688 20.5747 230.399 21.9737 230.399 27.5114V38.2954H227.756V11.7046H230.409ZM250.819 29.4253C251.138 33.3406 254.138 36.3621 258.247 36.3621C261.314 36.3621 263.851 34.6036 265.066 31.9028H267.815C266.243 36.1484 262.674 38.7715 258.247 38.7715C252.498 38.7715 248.07 34.3899 248.07 28.4927C248.07 23.635 251.601 18.175 258.247 18.175C265.635 18.175 268.307 24.3539 268.278 29.4253H250.819ZM265.423 27.0159C264.671 23.0229 261.642 20.5844 258.247 20.5844C254.494 20.5844 251.466 23.2755 250.819 27.0159H265.423ZM273.304 29.4253C273.622 33.3406 276.622 36.3621 280.731 36.3621C283.799 36.3621 286.336 34.6036 287.551 31.9028H290.3C288.728 36.1484 285.159 38.7715 280.731 38.7715C274.982 38.7715 270.565 34.3899 270.565 28.4927C270.565 23.635 274.095 18.175 280.731 18.175C288.12 18.175 290.802 24.3539 290.763 29.4253H273.304ZM287.908 27.0159C287.155 23.0229 284.127 20.5844 280.731 20.5844C276.989 20.5844 273.95 23.2755 273.304 27.0159H287.908ZM293.792 11.7046H296.435V38.3052H293.792V11.7046ZM301.393 32.5148C301.209 34.5259 302.57 36.3621 304.923 36.3621C307.171 36.3621 308.347 34.7105 308.347 32.9423C308.347 30.5329 306.418 29.8528 304.566 29.2019C302.531 28.5218 299.464 27.4434 299.464 23.703C299.464 20.6135 301.566 18.1653 305.106 18.1653C308.318 18.1653 310.537 20.5067 310.498 23.5184H307.855C307.894 21.7599 306.679 20.5747 305.039 20.5747C303.187 20.5747 302.116 21.8279 302.116 23.4893C302.116 25.7529 304.113 26.4719 305.936 27.0451C308.261 27.8029 311 28.8036 311 32.5051C311 36.0998 308.714 38.7618 304.721 38.7618C300.65 38.7618 298.759 35.7792 298.759 32.5051H301.393V32.5148Z" fill="white"/>
<path fill-rule="evenodd" clip-rule="evenodd" d="M42.3719 7.32294C32.6778 -2.44098 16.9647 -2.44098 7.27058 7.32294C-2.42353 17.0869 -2.42353 32.9131 7.27058 42.6771C16.9647 52.441 32.6778 52.441 42.3719 42.6771C52.066 32.9131 52.066 17.0869 42.3719 7.32294ZM35.8996 38.3052H32.62L30.6233 35.614L28.6266 38.3052H25.347L16.3859 26.2581H18.5756C20.1864 26.2581 26.3501 26.093 26.3501 20.1472C26.3501 17.3103 24.7393 14.1042 18.4984 14.1042H13.7526V38.2954H11.1096V11.6948H18.4984C28.424 11.6948 28.9931 18.2041 28.9931 20.3901C28.9931 24.694 25.9354 28.0263 21.2475 28.3664L26.9964 36.0901L28.9931 33.3989L30.6329 31.1935L32.2727 33.3989L34.2694 36.0901L41.5906 26.2484H44.8702L35.8996 38.3052Z" fill="#FF0000"/>
</svg>
